# xmcd
#
# Track frame offsets: 
#        150
#        2398
#        23167
#        40427
#        62810
#        81326
#        95150
#        101693
#        118799
#        133984
#        136589
#        158364
#        175512
#        201279
#        222499
#        257995
#        276649
#        294763
#        311828
#        330562
#
# Disc length: 4652 seconds
#
# Revision: 0
# Processed by: cddbd v1.5.2PL0 Copyright (c) Steve Scherf et al.
# Submitted via: ExactAudioCopy v0.99pb5
#
DISCID=27122a14
DTITLE=Smashproof - The Weekend
DYEAR=2009
DGENRE=Hip-Hop
TTITLE0=Clocking Out (Intro)
TTITLE1=The Weekend
TTITLE2=Brother (ft. Gin Wigmore)
TTITLE3=Its Friday
TTITLE4=Hot Boy
TTITLE5=The Morning After
TTITLE6=Pressure (Interlude)
TTITLE7=I Could Take You There (ft. MZJ, Stunner and Mr. Sicc)
TTITLE8=Somebody Like Me
TTITLE9=Backstage (Interlude)
TTITLE10=Breathe In, Breathe Out (ft. Ethical)
TTITLE11=All Night Long (ft. Nina Sky)
TTITLE12=My Crib (ft. Awa and Pieter T)
TTITLE13=Sunday Star Times
TTITLE14=Ordinary Life
TTITLE15=Red Light
TTITLE16=Celebration
TTITLE17=Deachy is Back
TTITLE18=Brother (ft. Gin Wigmore) (Twice As Nice Remix)
TTITLE19=Ordinary Life (ft. Savage, Ethical and Mr. Sicc)
EXTD=
EXTT0=
EXTT1=
EXTT2=
EXTT3=
EXTT4=
EXTT5=
EXTT6=
EXTT7=
EXTT8=
EXTT9=
EXTT10=
EXTT11=
EXTT12=
EXTT13=
EXTT14=
EXTT15=
EXTT16=
EXTT17=
EXTT18=
EXTT19=
PLAYORDER=
